# xmcd
#
# Track frame offsets:
#	150
#	22422
#	45283
#	77086
#	97287
#	113005
#
# Disc length: 1877 seconds
#
# Revision: 2
# Processed by: cddbd v1.5.2PL0 Copyright (c) Steve Scherf et al.
# Submitted via: EasyCDDAExtractor 16.0.9.1
#
DISCID=47075306
DTITLE=Barry White - Let The Music Play
DYEAR=1974
DGENRE=Soul
TTITLE0=I Don't Know Where Love Has Gone
TTITLE1=If You Know, Won't You Tell Me
TTITLE2=I'm So Blue And You Are Too
TTITLE3=Baby, We Better Try To Get It Together
TTITLE4=You See The Trouble With Me
TTITLE5=Let The Music Play
EXTD=
EXTT0=
EXTT1=
EXTT2=
EXTT3=
EXTT4=
EXTT5=
PLAYORDER=
